<?xml version="1.0" ?><!DOCTYPE svg  PUBLIC '-//W3C//DTD SVG 1.1//EN'  'http://www.w3.org/Graphics/SVG/1.1/DTD/svg11.dtd'><svg enable-background="new 0 0 128 128" id="Слой_1" version="1.1" viewBox="0 0 128 128" xml:space="preserve" xmlns="http://www.w3.org/2000/svg" xmlns:xlink="http://www.w3.org/1999/xlink"><g><path d="M46.1,30.1c7.2,0,13.7,3.1,17.9,8c4.4-4.9,10.9-8,17.9-8c13.2,0,24.1,10.5,24.1,23.6   c0,7.4-3.5,13.9-8.8,18.2l0,0L64,97.6L31.4,72.4l0,0C25.6,68,22,61.3,22,53.7C22,40.8,32.7,30.1,46.1,30.1z" fill="#ED5D64"/><path d="M46.1,30.1c7.2,0,13.7,3.1,17.9,8c4.4-4.9,10.9-8,17.9-8c13.2,0,24.1,10.5,24.1,23.6   c0,7.4-3.5,13.9-8.8,18.2l0,0L64,97.6L31.4,72.4l0,0C25.6,68,22,61.3,22,53.7C22,40.8,32.7,30.1,46.1,30.1z" fill="#E780B3"/><g opacity="0.1"><path d="M81.9,30.1c-2.3,0-4.5,0.3-6.7,0.9c10,2.8,17.3,11.8,17.3,22.6c0,7.4-3.6,10.2-8.8,18.2L64,97.6l33.2-25.7    c5.3-4.3,8.8-10.8,8.8-18.2C106,40.6,95.1,30.1,81.9,30.1z" fill="#0C0F13"/></g><g opacity="0.8"><path d="M32.7,56.7c-1.7,0-3-1.3-3-3c0-8.9,7.3-16.1,16.4-16.1c1.7,0,3,1.3,3,3s-1.3,3-3,3    c-5.7,0-10.4,4.5-10.4,10.1C35.7,55.4,34.3,56.7,32.7,56.7z" fill="#FFFFFF"/></g><g><path d="M64,100.6c-0.6,0-1.3-0.2-1.8-0.6L29.6,74.7c-6.7-5-10.6-12.7-10.6-21c0-14.7,12.1-26.6,27.1-26.6    c6.8,0,13.2,2.4,18,6.8c4.9-4.3,11.3-6.8,17.9-6.8c14.9,0,27.1,11.9,27.1,26.6c0,7.9-3.6,15.4-9.9,20.5L65.8,100    C65.3,100.4,64.6,100.6,64,100.6z M46.1,33.1C34.5,33.1,25,42.4,25,53.7c0,6.4,3,12.4,8.2,16.2L64,93.8l31.4-24.3    c4.8-3.9,7.6-9.7,7.6-15.8c0-11.3-9.5-20.6-21.1-20.6c-6,0-11.7,2.6-15.7,7c-0.6,0.6-1.4,1-2.3,1c-0.9,0-1.7-0.4-2.2-1    C57.9,35.7,52.2,33.1,46.1,33.1z" fill="#454B54"/></g></g></svg>